<?xml version="1.0" encoding="UTF-8"?>
<svg xmlns="http://www.w3.org/2000/svg" xmlns:xlink="http://www.w3.org/1999/xlink" width="3000" height="3000" viewBox="0 0 3000 3000">
<path fill-rule="nonzero" fill="rgb(83.984375%, 60.351562%, 31.809998%)" fill-opacity="1" d="M 1435.921875 2402.550781 C 1397.550781 2520.058594 1331.96875 2628.328125 1214.550781 2724.089844 C 1138.019531 2786.578125 1025.28125 2780.039062 932.128906 2747.191406 C 723 2673.359375 562.441406 2476.800781 531.871094 2257.140625 C 526.378906 2217.328125 524.789062 2177.460938 525.898438 2137.648438 C 529.261719 2016.660156 557.191406 1895.371094 573.691406 1774.648438 C 595.558594 1614.058594 593.070312 1437.210938 496.199219 1307.28125 C 616.109375 1311.328125 737.101562 1315.46875 853.230469 1345.648438 C 969.359375 1375.769531 1081.769531 1434.539062 1154.851562 1529.640625 C 1183.171875 1566.480469 1204.351562 1606.769531 1221.058594 1649.28125 C 1295.578125 1839.089844 1279.558594 2073.480469 1398.03125 2243.578125 C 1417.980469 2272.171875 1442.25 2300.371094 1446.570312 2334.960938 C 1449.421875 2357.730469 1443.089844 2380.679688 1435.921875 2402.550781 "/>
<path fill-rule="nonzero" fill="rgb(31.005859%, 19.604492%, 5.099487%)" fill-opacity="1" d="M 1833.421875 621.988281 C 2011.230469 480.148438 2189.011719 338.28125 2366.820312 196.441406 C 2378.21875 187.351562 2390.460938 177.871094 2404.980469 176.21875 C 2438.25 172.410156 2460.511719 209.160156 2471.160156 240.898438 C 2516.21875 375.480469 2514.660156 525.179688 2466.808594 658.769531 C 2418.960938 792.359375 2325.121094 909.03125 2204.878906 984.390625 C 2210.609375 913.289062 2151.929688 854.761719 2095.589844 810.988281 C 2015.25 748.621094 1929.511719 693.210938 1833.421875 621.988281 Z M 1707.359375 620.128906 C 1578.148438 514.378906 1469.578125 383.578125 1389.421875 237.121094 C 1369.800781 201.300781 1344 159.328125 1303.109375 158.820312 C 1266.210938 158.371094 1239.390625 192.808594 1221.179688 224.878906 C 1153.019531 344.851562 1116.480469 484.558594 1129.320312 621.929688 C 1142.160156 759.300781 1206.691406 893.371094 1313.851562 980.308594 C 1454.429688 882.328125 1587.121094 773.039062 1707.359375 620.128906 "/>
<path fill-rule="nonzero" fill="rgb(100%, 89.84375%, 76.951599%)" fill-opacity="1" d="M 1992.871094 742.589844 C 2094.449219 657.148438 2178 550.410156 2236.558594 431.28125 C 2271.988281 359.21875 2300.460938 279.839844 2361.210938 227.308594 C 2378.761719 212.128906 2403.121094 199.199219 2424.328125 208.621094 C 2447.640625 219 2452.738281 249.300781 2454.210938 274.769531 C 2461.53125 402.691406 2457.539062 532.949219 2421.148438 655.828125 C 2384.761719 778.710938 2313.359375 894.359375 2207.011719 965.851562 C 2215.589844 914.398438 2192.910156 861.71875 2158.679688 822.359375 C 2124.480469 783.03125 2079.660156 754.679688 1992.871094 742.589844 Z M 1547.820312 695.578125 C 1456.859375 560.96875 1389.871094 410.191406 1350.960938 252.449219 C 1347.179688 237.089844 1343.519531 221.308594 1335.03125 207.960938 C 1326.539062 194.609375 1312.078125 183.839844 1296.269531 184.410156 C 1276.171875 185.101562 1261.199219 202.710938 1249.921875 219.390625 C 1183.019531 318.269531 1148.550781 438.71875 1152.960938 558 C 1157.371094 677.28125 1200.660156 794.851562 1274.699219 888.539062 C 1342.800781 813.449219 1415.851562 742.859375 1547.820312 695.578125 "/>
<path fill-rule="nonzero" fill="rgb(95.3125%, 71.09375%, 40.405273%)" fill-opacity="1" d="M 2499.71875 1263.539062 C 2498.339844 1268.070312 2496.839844 1272.628906 2495.25 1277.070312 C 2462.941406 1368.238281 2389.859375 1441.589844 2306.25 1490.96875 C 2284.859375 1503.628906 2262.871094 1514.820312 2240.25 1524.929688 C 2234.820312 1527.328125 2229.238281 1529.730469 2223.75 1532.011719 C 2220.03125 1533.601562 2216.398438 1535.039062 2212.679688 1536.480469 C 2209.710938 1537.710938 2206.710938 1538.878906 2203.679688 1540.050781 C 2202.839844 1540.378906 2202.03125 1540.738281 2201.191406 1541.011719 C 2196.089844 1542.988281 2190.960938 1544.851562 2185.800781 1546.648438 C 2184.691406 1547.128906 2183.609375 1547.550781 2182.441406 1547.878906 C 2177.96875 1549.53125 2173.5 1551.03125 2169.03125 1552.558594 C 2166.839844 1553.308594 2164.558594 1554.058594 2162.28125 1554.75 C 2158.140625 1556.191406 2153.96875 1557.511719 2149.769531 1558.800781 C 2142 1561.289062 2134.171875 1563.691406 2126.339844 1565.878906 C 2121.449219 1567.378906 2116.589844 1568.761719 2111.699219 1570.078125 C 2107.441406 1571.308594 2103.121094 1572.421875 2098.828125 1573.589844 C 2093.25 1575.03125 2087.550781 1576.558594 2081.910156 1577.910156 C 2075.851562 1579.5 2069.730469 1580.941406 2063.609375 1582.378906 C 2057.488281 1583.820312 2051.429688 1585.261719 2045.308594 1586.640625 C 2045.160156 1586.699219 2045.039062 1586.699219 2044.890625 1586.789062 C 2038.828125 1588.109375 2032.710938 1589.460938 2026.589844 1590.78125 C 2026.441406 1590.78125 2026.320312 1590.78125 2026.171875 1590.839844 C 2023.019531 1591.589844 2019.988281 1592.21875 2016.808594 1592.910156 C 2020.171875 1594.769531 2023.46875 1596.75 2026.769531 1598.761719 C 2028.421875 1599.78125 2030.128906 1600.738281 2031.71875 1601.851562 L 2031.78125 1601.851562 C 2032.261719 1602.121094 2032.621094 1602.390625 2033.011719 1602.660156 C 2035.351562 1604.160156 2037.691406 1605.75 2040.03125 1607.339844 C 2042.789062 1609.199219 2045.460938 1611.121094 2048.128906 1613.039062 C 2051.160156 1615.230469 2054.101562 1617.511719 2057.011719 1619.851562 C 2059.289062 1621.648438 2061.539062 1623.421875 2063.761719 1625.339844 C 2065.679688 1626.929688 2067.691406 1628.640625 2069.519531 1630.351562 C 2071.019531 1631.578125 2072.550781 1632.960938 2073.988281 1634.339844 C 2074.738281 1635.03125 2075.488281 1635.71875 2076.269531 1636.46875 C 2078.460938 1638.390625 2080.589844 1640.460938 2082.660156 1642.53125 C 2086.019531 1645.890625 2089.320312 1649.28125 2092.5 1652.699219 C 2147.371094 1711.890625 2180.160156 1791.988281 2179.261719 1872.839844 C 2179.050781 1890.449219 2177.460938 1908.390625 2176.019531 1926.269531 L 2176.019531 1926.539062 C 2174.101562 1951.351562 2172.511719 1976.039062 2175.75 1999.828125 C 2177.609375 2013.660156 2181.121094 2027.128906 2187.03125 2040.121094 C 2205.390625 2079.988281 2243.460938 2106.269531 2275.441406 2136.300781 C 2362.261719 2217.691406 2409.988281 2341.738281 2390.941406 2459.21875 C 2372.039062 2575.679688 2284.230469 2680.378906 2171.339844 2710.589844 C 2170.320312 2710.859375 2169.359375 2711.128906 2168.308594 2711.429688 C 2173.589844 2741.761719 2154.628906 2772.421875 2128.769531 2789.25 C 2102.910156 2806.019531 2071.5 2811.601562 2040.839844 2814.898438 C 2009.96875 2818.199219 1978.890625 2819.699219 1947.808594 2819.308594 C 1926.839844 2819.039062 1901.128906 2814.511719 1897.351562 2791.53125 C 1872.539062 2820.808594 1835.191406 2839.171875 1796.851562 2841.03125 C 1758.480469 2842.828125 1719.628906 2827.980469 1693.800781 2796.898438 C 1666.230469 2822.550781 1628.699219 2837.25 1591.019531 2837.039062 C 1553.339844 2836.828125 1515.929688 2821.769531 1489.140625 2795.640625 C 1476.960938 2812.078125 1457.160156 2821.710938 1437.03125 2825.550781 C 1416.898438 2829.390625 1396.199219 2828.101562 1375.710938 2826.511719 C 1341.328125 2823.898438 1306.949219 2820.449219 1272.71875 2816.28125 C 1255.199219 2814.148438 1237.109375 2811.601562 1222.050781 2802.328125 C 1207.050781 2793.058594 1195.859375 2775.238281 1196.609375 2744.640625 C 1196.191406 2744.429688 1195.859375 2744.21875 1195.441406 2744.011719 C 1110.601562 2698.351562 1046.25 2616.421875 1022.128906 2523.179688 C 997.859375 2429.550781 1014.570312 2326.078125 1067.011719 2244.871094 C 1097.609375 2197.5 1139.128906 2158.230469 1171.710938 2112.238281 C 1213.800781 2052.988281 1239.628906 1984.828125 1263.421875 1915.828125 C 1268.699219 1900.5 1273.859375 1885.109375 1279.171875 1869.691406 C 1284.871094 1852.769531 1290.71875 1835.851562 1296.839844 1819.078125 C 1311.058594 1780.109375 1327.710938 1740.78125 1348.738281 1704.390625 C 1352.519531 1697.941406 1356.359375 1691.519531 1360.441406 1685.28125 C 1361.550781 1683.570312 1362.628906 1681.828125 1363.800781 1680.179688 C 1365.300781 1677.839844 1366.890625 1675.558594 1368.480469 1673.308594 C 1370.671875 1670.160156 1372.890625 1667.039062 1375.140625 1663.949219 C 1375.558594 1663.320312 1375.949219 1662.78125 1376.371094 1662.238281 C 1378.558594 1659.359375 1380.691406 1656.539062 1382.910156 1653.71875 C 1382.96875 1653.660156 1382.96875 1653.570312 1383.058594 1653.570312 C 1385.039062 1650.960938 1387.109375 1648.410156 1389.238281 1645.949219 C 1402.589844 1629.929688 1417.351562 1615.140625 1433.730469 1602.089844 C 1435.710938 1600.5 1437.71875 1598.941406 1439.789062 1597.410156 C 1444.050781 1594.109375 1448.371094 1591.019531 1452.839844 1587.988281 C 1454.699219 1586.761719 1456.558594 1585.589844 1458.421875 1584.421875 C 1459.800781 1583.460938 1461.238281 1582.558594 1462.679688 1581.75 C 1464.808594 1580.429688 1466.941406 1579.140625 1469.128906 1577.96875 C 1469.820312 1577.429688 1470.570312 1577.070312 1471.261719 1576.648438 C 1471.800781 1576.320312 1472.28125 1576.019531 1472.851562 1575.75 C 1474.710938 1574.730469 1476.628906 1573.679688 1478.550781 1572.71875 C 1481.308594 1571.21875 1484.128906 1569.839844 1486.949219 1568.460938 C 1487.101562 1568.398438 1487.21875 1568.308594 1487.371094 1568.25 C 1426.949219 1532.011719 1355.578125 1519.5 1289.789062 1494.210938 C 1126.710938 1431.660156 999.179688 1284.121094 960.210938 1113.960938 C 959.398438 1110.601562 958.621094 1107.210938 957.929688 1103.789062 C 980.878906 1117.320312 1004.191406 1130.941406 1029.839844 1138.171875 C 1055.550781 1145.308594 1084.230469 1145.460938 1107.601562 1132.679688 C 1129.679688 1120.589844 1144.589844 1098.449219 1153.859375 1075.140625 C 1163.21875 1051.769531 1167.691406 1026.871094 1173.988281 1002.601562 C 1185.269531 959.640625 1202.671875 918.238281 1223.070312 881.941406 C 1225.828125 876.839844 1228.710938 871.890625 1231.648438 867.03125 C 1330.589844 723.75 1486.441406 624.539062 1669.949219 588.300781 C 1699.019531 582.539062 1728.871094 578.339844 1759.261719 575.851562 C 1800.03125 572.488281 1841.011719 575.578125 1881.03125 583.949219 C 1920.898438 592.261719 1959.75 605.820312 1996.378906 623.609375 C 2069.820312 659.28125 2134.441406 711.480469 2189.699219 771.570312 C 2227.019531 812.191406 2260.859375 857.519531 2278.589844 909.839844 C 2280.390625 915.121094 2282.039062 920.488281 2283.480469 925.921875 C 2296.140625 971.699219 2297.699219 1020.03125 2302.738281 1067.488281 C 2308.378906 1120.5 2319.570312 1175.28125 2352.660156 1217.101562 C 2385.75 1259.011719 2446.109375 1283.339844 2499.71875 1263.539062 "/>
<path fill-rule="nonzero" fill="rgb(100%, 89.84375%, 76.951599%)" fill-opacity="1" d="M 2495.25 1277.070312 C 2462.941406 1368.238281 2389.859375 1441.589844 2306.25 1490.96875 C 2284.859375 1503.628906 2262.871094 1514.820312 2240.25 1524.929688 C 2234.820312 1527.328125 2229.238281 1529.730469 2223.75 1532.011719 C 2220.03125 1533.601562 2216.398438 1535.039062 2212.679688 1536.480469 C 2209.710938 1537.710938 2206.710938 1538.878906 2203.679688 1540.050781 C 2202.839844 1540.378906 2202.03125 1540.738281 2201.191406 1541.011719 C 2196.089844 1542.988281 2190.960938 1544.851562 2185.800781 1546.648438 C 2184.691406 1547.128906 2183.609375 1547.550781 2182.441406 1547.878906 C 2177.96875 1549.53125 2173.5 1551.03125 2169.03125 1552.558594 C 2166.839844 1553.308594 2164.558594 1554.058594 2162.28125 1554.75 C 2158.140625 1556.191406 2153.96875 1557.511719 2149.769531 1558.800781 C 2142 1561.289062 2134.171875 1563.691406 2126.339844 1565.878906 C 2121.449219 1567.378906 2116.589844 1568.761719 2111.699219 1570.078125 C 2107.441406 1571.308594 2103.121094 1572.421875 2098.828125 1573.589844 C 2093.25 1575.03125 2087.550781 1576.558594 2081.910156 1577.910156 C 2075.851562 1579.5 2069.730469 1580.941406 2063.609375 1582.378906 C 2057.488281 1583.820312 2051.429688 1585.261719 2045.308594 1586.640625 C 2045.160156 1586.699219 2045.039062 1586.699219 2044.890625 1586.789062 C 2038.828125 1588.109375 2032.710938 1589.460938 2026.589844 1590.78125 C 2026.441406 1590.78125 2026.320312 1590.78125 2026.171875 1590.839844 C 2023.019531 1591.589844 2019.988281 1592.21875 2016.808594 1592.910156 C 2020.171875 1594.769531 2023.46875 1596.75 2026.769531 1598.761719 C 2028.421875 1599.78125 2030.128906 1600.738281 2031.71875 1601.851562 L 2031.78125 1601.851562 C 2032.261719 1602.121094 2032.621094 1602.390625 2033.011719 1602.660156 C 2035.351562 1604.160156 2037.691406 1605.75 2040.03125 1607.339844 C 2042.789062 1609.199219 2045.460938 1611.121094 2048.128906 1613.039062 C 2051.160156 1615.230469 2054.101562 1617.511719 2057.011719 1619.851562 C 2059.289062 1621.648438 2061.539062 1623.421875 2063.761719 1625.339844 C 2065.679688 1626.929688 2067.691406 1628.640625 2069.519531 1630.351562 C 2071.019531 1631.578125 2072.550781 1632.960938 2073.988281 1634.339844 C 2074.738281 1635.03125 2075.488281 1635.71875 2076.269531 1636.46875 C 2078.460938 1638.390625 2080.589844 1640.460938 2082.660156 1642.53125 C 2086.019531 1645.890625 2089.320312 1649.28125 2092.5 1652.699219 C 2094.691406 1759.050781 2056.46875 1862.941406 2005.738281 1953.839844 C 1958.699219 2037.929688 1900.679688 2115.75 1854.269531 2199.960938 C 1844.429688 2217.78125 1835.160156 2235.78125 1826.550781 2254.261719 C 1755.871094 2406.808594 1738.828125 2578.828125 1739.308594 2747.070312 C 1737.238281 2766.179688 1731.058594 2777.519531 1721.160156 2782.46875 C 1711.320312 2787.421875 1698.480469 2785.710938 1690.289062 2778.269531 C 1681.980469 2770.710938 1679.070312 2758.949219 1676.609375 2747.941406 C 1649.789062 2628.511719 1619.550781 2510.128906 1591.230469 2391.179688 C 1590.328125 2387.128906 1589.371094 2383.140625 1588.410156 2379.148438 C 1581.601562 2350.46875 1574.941406 2321.730469 1568.460938 2292.988281 C 1566.121094 2282.191406 1563.511719 2271.960938 1560.539062 2262.179688 L 1560.539062 2262.121094 C 1533.179688 2170.140625 1482.570312 2123.160156 1439.671875 2049.390625 C 1392.300781 1967.851562 1351.589844 1879.230469 1346.851562 1784.96875 C 1345.46875 1758.359375 1347 1731.328125 1348.710938 1704.328125 C 1352.488281 1697.878906 1356.328125 1691.460938 1360.410156 1685.21875 C 1361.519531 1683.511719 1362.601562 1681.769531 1363.769531 1680.121094 C 1365.269531 1677.78125 1366.859375 1675.5 1368.449219 1673.25 C 1370.640625 1670.101562 1372.859375 1666.980469 1375.109375 1663.890625 C 1375.53125 1663.261719 1375.921875 1662.71875 1376.339844 1662.179688 C 1378.53125 1659.300781 1380.660156 1656.480469 1382.878906 1653.660156 C 1382.941406 1653.601562 1382.941406 1653.511719 1383.03125 1653.511719 C 1385.011719 1650.898438 1387.078125 1648.351562 1389.210938 1645.890625 C 1402.558594 1629.871094 1417.320312 1615.078125 1433.699219 1602.03125 C 1435.679688 1600.441406 1437.691406 1598.878906 1439.761719 1597.351562 C 1444.019531 1594.050781 1448.339844 1590.960938 1452.808594 1587.929688 C 1454.671875 1586.699219 1456.53125 1585.53125 1458.390625 1584.359375 C 1459.769531 1583.398438 1461.210938 1582.5 1462.648438 1581.691406 C 1464.78125 1580.371094 1466.910156 1579.078125 1469.101562 1577.910156 C 1469.789062 1577.371094 1470.539062 1577.011719 1471.230469 1576.589844 C 1471.769531 1576.261719 1472.25 1575.960938 1472.820312 1575.691406 C 1474.679688 1574.671875 1476.601562 1573.621094 1478.519531 1572.660156 C 1481.28125 1571.160156 1484.101562 1569.78125 1486.921875 1568.398438 C 1487.070312 1568.339844 1487.191406 1568.25 1487.339844 1568.191406 C 1426.921875 1531.949219 1355.550781 1519.441406 1289.761719 1494.148438 C 1126.679688 1431.601562 999.148438 1284.058594 960.179688 1113.898438 C 1012.558594 1170.359375 1069.5 1215.03125 1133.640625 1246.441406 C 1208.730469 1283.160156 1294.109375 1300.949219 1377.03125 1290.03125 C 1432.980469 1282.589844 1488 1262.308594 1544.21875 1267.078125 C 1599.210938 1271.699219 1651.53125 1301.578125 1686.058594 1351.980469 C 1716.71875 1351.710938 1747.46875 1355.28125 1786.230469 1363.800781 C 1800.871094 1316.429688 1854.570312 1290.71875 1904.128906 1290.238281 C 1953.78125 1289.761719 2001.210938 1308.328125 2048.851562 1321.859375 C 2132.25 1345.710938 2220.328125 1354.859375 2306.191406 1343.101562 C 2369.519531 1334.550781 2431.46875 1314.359375 2495.25 1277.070312 Z M 1221.03125 1649.25 C 1204.320312 1606.769531 1183.140625 1566.480469 1154.820312 1529.609375 C 1081.738281 1434.539062 969.328125 1375.738281 853.199219 1345.621094 C 737.070312 1315.441406 616.078125 1311.300781 496.171875 1307.25 C 593.039062 1437.179688 595.53125 1614.03125 573.660156 1774.621094 C 557.160156 1895.339844 529.261719 2016.628906 525.871094 2137.621094 C 571.261719 2015.371094 632.789062 1899.058594 708.328125 1792.679688 C 727.859375 1918.769531 768.359375 2041.621094 827.609375 2154.601562 C 852.148438 2018.070312 876.628906 1881.511719 901.109375 1744.921875 C 944.070312 1816.558594 987.058594 1888.140625 1030.078125 1959.78125 C 1050.300781 1865.578125 1053.121094 1767.691406 1038.539062 1672.46875 C 1085.96875 1703.128906 1126.050781 1745.21875 1154.460938 1794.148438 C 1148.28125 1729.109375 1142.160156 1664.128906 1135.980469 1599.179688 C 1164.359375 1615.890625 1192.679688 1632.539062 1221.03125 1649.25 "/>
<path fill-rule="nonzero" fill="rgb(31.005859%, 19.604492%, 5.099487%)" fill-opacity="1" d="M 2168.398438 2711.460938 C 2173.679688 2741.789062 2154.71875 2772.449219 2128.859375 2789.28125 C 2103 2806.050781 2071.589844 2811.628906 2040.929688 2814.929688 C 2010.058594 2818.230469 1978.980469 2819.730469 1947.898438 2819.339844 C 1926.929688 2819.070312 1901.21875 2814.539062 1897.441406 2791.558594 C 1872.628906 2820.839844 1835.28125 2839.199219 1796.941406 2841.058594 C 1758.570312 2842.859375 1719.71875 2828.011719 1693.890625 2796.929688 C 1666.320312 2822.578125 1628.789062 2837.28125 1591.109375 2837.070312 C 1553.429688 2836.859375 1516.019531 2821.800781 1489.230469 2795.671875 C 1477.050781 2812.109375 1457.25 2821.738281 1437.121094 2825.578125 C 1416.988281 2829.421875 1396.289062 2828.128906 1375.800781 2826.539062 C 1341.421875 2823.929688 1307.039062 2820.480469 1272.808594 2816.308594 C 1255.289062 2814.179688 1237.199219 2811.628906 1222.140625 2802.359375 C 1207.140625 2793.089844 1195.949219 2775.269531 1196.699219 2744.671875 C 1196.28125 2744.460938 1195.949219 2744.25 1195.53125 2744.039062 C 1196.851562 2723.070312 1203.628906 2702.730469 1216.441406 2686.019531 C 1247.371094 2645.789062 1305.960938 2635.199219 1354.980469 2648.398438 C 1404 2661.601562 1445.308594 2694.058594 1483.261719 2727.75 C 1467.929688 2678.101562 1453.621094 2628.71875 1439.640625 2579.398438 C 1424.820312 2539.019531 1412.761719 2497.589844 1401.03125 2456.191406 C 1385.910156 2403.898438 1377.871094 2350.109375 1369.921875 2296.351562 C 1367.371094 2290.171875 1376.460938 2285.878906 1377.628906 2294.460938 C 1385.519531 2335.949219 1391.550781 2377.921875 1402.980469 2418.660156 C 1410.511719 2445.238281 1418.519531 2471.730469 1426.828125 2498.101562 C 1459.5 2521.078125 1489.558594 2541.179688 1523.789062 2551.109375 C 1556.910156 2560.738281 1595.011719 2559.089844 1623.839844 2541.238281 C 1614.601562 2504.28125 1606.140625 2467.140625 1598.761719 2429.789062 C 1590.480469 2375.21875 1571.488281 2323.109375 1561.828125 2268.898438 C 1561.46875 2265.628906 1560.121094 2262.300781 1560.449219 2259.03125 C 1561.230469 2255.761719 1565.96875 2254.828125 1567.828125 2257.589844 C 1579.648438 2298.71875 1591.710938 2340.148438 1602.089844 2381.761719 C 1612.5 2432.101562 1623.628906 2482.261719 1636.050781 2532.148438 C 1636.378906 2531.851562 1636.769531 2531.578125 1637.101562 2531.28125 C 1641.300781 2549.128906 1645.558594 2567.070312 1649.789062 2585.070312 C 1650 2585.789062 1650.148438 2586.511719 1650.359375 2587.261719 C 1650.421875 2587.441406 1650.390625 2587.621094 1650.421875 2587.800781 C 1665.238281 2650.53125 1680.238281 2713.921875 1695.238281 2777.371094 C 1711.109375 2672.101562 1731 2572.410156 1755.871094 2473.890625 C 1755.988281 2474.039062 1756.140625 2474.191406 1756.289062 2474.339844 C 1757.128906 2469.328125 1758.058594 2464.351562 1758.808594 2459.308594 C 1774.890625 2369.789062 1796.371094 2278.109375 1848.210938 2201.910156 C 1850.070312 2198.308594 1855.800781 2199.089844 1856.761719 2202.929688 C 1857.511719 2205.421875 1855.621094 2207.460938 1854.539062 2209.53125 C 1834.859375 2246.371094 1815.839844 2280.660156 1804.019531 2317.46875 C 1784.910156 2370.960938 1774.019531 2426.488281 1763.519531 2482.078125 C 1792.800781 2511.808594 1828.710938 2526.511719 1865.160156 2527.378906 C 1899.089844 2528.191406 1933.050781 2517.089844 1960.230469 2496.78125 C 1977.988281 2427.03125 1993.921875 2356.46875 2025.089844 2291.21875 C 2025.058594 2288.550781 2032.949219 2285.128906 2034.390625 2292.03125 C 2021.128906 2331.988281 2004.898438 2371.53125 1994.308594 2412.601562 C 1982.910156 2454.839844 1972.921875 2497.46875 1961.339844 2539.679688 C 1958.101562 2552.128906 1954.441406 2564.488281 1950.601562 2576.761719 C 1950.089844 2578.441406 1949.609375 2580.148438 1949.070312 2581.828125 C 1949.011719 2582.128906 1948.828125 2582.308594 1948.738281 2582.578125 C 1936.019531 2622.179688 1920.359375 2660.820312 1901.671875 2697.960938 C 1932.539062 2681.460938 1963.46875 2663.578125 1997.160156 2652.390625 C 2030.851562 2641.261719 2067.839844 2637.269531 2101.738281 2647.710938 C 2132.761719 2657.28125 2160.511719 2680.441406 2171.398438 2710.679688 C 2170.410156 2710.890625 2169.449219 2711.160156 2168.398438 2711.460938 Z M 2176.109375 1926.570312 C 2163.808594 2002.46875 2147.429688 2077.828125 2112.449219 2143.828125 C 2106.660156 2151.601562 2116.019531 2157.511719 2119.589844 2148.03125 C 2140.5 2110.078125 2156.640625 2069.851562 2168.070312 2028.058594 C 2170.949219 2018.699219 2173.5 2009.28125 2175.839844 1999.859375 C 2172.601562 1976.070312 2174.191406 1951.410156 2176.109375 1926.570312 Z M 1325.101562 2177.25 C 1299.238281 2092.078125 1277.578125 2008.410156 1277.101562 1921.921875 C 1276.949219 1904.519531 1277.789062 1887.121094 1279.230469 1869.75 C 1273.949219 1885.140625 1268.789062 1900.558594 1263.480469 1915.890625 C 1263.328125 1937.671875 1264.289062 1959.480469 1266.929688 1981.199219 C 1276.140625 2046.660156 1289.96875 2112.390625 1313.96875 2174.128906 C 1316.101562 2178.238281 1316.25 2182.320312 1319.25 2184.660156 C 1324.140625 2187 1327.800781 2181.570312 1325.101562 2177.25 Z M 2026.859375 1598.761719 C 2023.558594 1596.78125 2020.261719 1594.769531 2016.898438 1592.910156 C 2020.050781 1592.21875 2023.078125 1591.589844 2026.261719 1590.839844 C 1976.761719 1597.289062 1925.460938 1610.96875 1885.109375 1632.929688 C 1883.671875 1635.269531 1885.050781 1638.628906 1887.71875 1639.320312 C 1891.078125 1639.859375 1894.261719 1637.339844 1897.46875 1636.441406 C 1931.160156 1623.570312 1971.988281 1610.039062 2004.390625 1604.398438 C 2013.480469 1603.230469 2022.601562 1602.539062 2031.808594 1601.851562 C 2030.21875 1600.769531 2028.511719 1599.808594 2026.859375 1598.761719 Z M 1554.75 1608.960938 C 1552.558594 1604.488281 1546.648438 1602.988281 1542.78125 1599.960938 C 1524.78125 1588.558594 1506.148438 1578.179688 1487.011719 1568.550781 C 1484.191406 1569.929688 1481.371094 1571.308594 1478.609375 1572.808594 C 1476.691406 1573.769531 1474.769531 1574.789062 1472.910156 1575.839844 C 1472.371094 1576.109375 1471.890625 1576.378906 1471.320312 1576.738281 C 1496.761719 1588.289062 1525.019531 1602.03125 1549.621094 1614.75 C 1552.800781 1615.410156 1555.710938 1611.960938 1554.75 1608.960938 Z M 1930.921875 1439.671875 C 1922.699219 1434.628906 1915.558594 1441.558594 1910.039062 1447.140625 C 1905.601562 1451.160156 1901.101562 1455.148438 1896.359375 1458.839844 C 1896.210938 1458.960938 1896.058594 1459.050781 1895.851562 1459.171875 C 1875.988281 1470.390625 1857.121094 1477.109375 1830.75 1476.121094 C 1798.378906 1472.578125 1759.171875 1449.058594 1742.820312 1419.359375 C 1742.761719 1419.238281 1742.730469 1419.179688 1742.671875 1419.058594 C 1746 1418.039062 1749.238281 1416.929688 1752.390625 1415.761719 C 1757.339844 1414.109375 1762.109375 1411.980469 1766.699219 1409.460938 C 1823.308594 1380.539062 1834.558594 1323.300781 1748.519531 1299.691406 C 1735.140625 1296.871094 1721.878906 1293.058594 1708.109375 1292.699219 C 1704.058594 1292.488281 1703.429688 1292.609375 1704.390625 1292.941406 C 1686.421875 1291.921875 1668.058594 1297.53125 1652.878906 1307.011719 C 1639.589844 1315.230469 1636.050781 1332.570312 1639.441406 1347 C 1644.328125 1363.5 1656.179688 1377.179688 1669.289062 1387.890625 C 1682.699219 1398.148438 1694.789062 1406.101562 1707.75 1411.648438 C 1691.640625 1433.398438 1672.769531 1445.21875 1642.800781 1453.441406 C 1636.289062 1454.578125 1635.539062 1454.820312 1624.320312 1455.121094 C 1622.28125 1455.210938 1616.191406 1454.609375 1613.699219 1454.371094 C 1602.75 1452.390625 1598.039062 1449.601562 1593.539062 1447.648438 C 1584.511719 1442.398438 1580.761719 1443.359375 1572.960938 1427.039062 C 1566.71875 1415.28125 1546.921875 1419 1546.019531 1432.46875 C 1544.101562 1441.171875 1552.441406 1446.75 1557.359375 1452.628906 C 1563.660156 1459.050781 1569.839844 1465.800781 1577.851562 1470.148438 C 1586.429688 1474.289062 1596 1476.148438 1605.390625 1477.558594 C 1634.609375 1482.359375 1663.53125 1472.339844 1688.519531 1457.699219 C 1700.878906 1449.839844 1712.398438 1439.609375 1721.371094 1427.699219 C 1755.511719 1492.320312 1852.648438 1515.570312 1913.21875 1474.410156 C 1924.289062 1467.300781 1948.621094 1452.898438 1930.921875 1439.671875 Z M 1560.121094 1238.671875 C 1559.671875 1238.671875 1559.308594 1238.488281 1558.859375 1238.429688 C 1558.648438 1238.488281 1558.5 1238.640625 1558.289062 1238.671875 C 1555.230469 1239.628906 1552.171875 1238.519531 1549.46875 1237.078125 C 1546.980469 1236.058594 1544.460938 1235.160156 1542 1234.078125 C 1536.929688 1231.078125 1531.800781 1231.078125 1526.21875 1229.21875 C 1491.570312 1221.871094 1447.710938 1219.890625 1412.308594 1227.929688 C 1394.640625 1231.378906 1388.011719 1234.53125 1372.621094 1235.730469 C 1368.359375 1236.148438 1363.378906 1235.460938 1360.769531 1231.710938 C 1356.328125 1226.519531 1360.230469 1219.800781 1364.25 1215.71875 C 1364.578125 1215.300781 1364.910156 1214.878906 1365.238281 1214.460938 C 1365.269531 1214.371094 1365.300781 1214.28125 1365.359375 1214.160156 C 1367.070312 1211.191406 1372.171875 1199.070312 1371.511719 1201.648438 C 1378.109375 1192.078125 1386.960938 1184.488281 1394.460938 1175.699219 C 1418.789062 1147.261719 1453.921875 1131.839844 1491.359375 1144.410156 C 1527.660156 1157.699219 1550.609375 1192.921875 1567.378906 1225.980469 C 1570.769531 1231.320312 1566.390625 1238.878906 1560.121094 1238.671875 Z M 1534.921875 1107.449219 C 1535.011719 1105.558594 1530.359375 1097.96875 1529.941406 1097.671875 C 1528.980469 1095.628906 1527.75 1093.679688 1526.28125 1092.03125 C 1514.878906 1081.53125 1504.890625 1078.589844 1491.390625 1073.488281 C 1464.03125 1068.421875 1435.410156 1074.390625 1409.101562 1082.28125 C 1400.851562 1085.519531 1377.121094 1089.511719 1382.671875 1102.109375 C 1384.679688 1105.710938 1389.121094 1106.28125 1392.808594 1105.351562 C 1401.328125 1103.578125 1409.640625 1100.96875 1418.25 1099.679688 C 1426.921875 1098.058594 1443.449219 1097.398438 1456.140625 1098.75 C 1466.550781 1099.800781 1490.25 1104.328125 1506.089844 1110.179688 C 1512.570312 1112.460938 1518.960938 1115.039062 1525.320312 1117.710938 C 1527.238281 1118.25 1529.339844 1117.949219 1531.050781 1116.960938 C 1533.421875 1115.640625 1534.621094 1113.148438 1534.648438 1110.628906 C 1535.128906 1109.671875 1535.28125 1108.589844 1534.921875 1107.449219 Z M 1892.941406 1261.859375 C 1893.390625 1261.859375 1893.75 1261.679688 1894.199219 1261.621094 C 1894.410156 1261.679688 1894.558594 1261.828125 1894.769531 1261.859375 C 1897.828125 1262.820312 1900.890625 1261.710938 1903.589844 1260.269531 C 1906.078125 1259.25 1908.601562 1258.351562 1911.058594 1257.269531 C 1916.128906 1254.269531 1921.261719 1254.269531 1926.839844 1252.410156 C 1961.488281 1245.058594 2005.351562 1243.078125 2040.75 1251.121094 C 2058.421875 1254.570312 2065.050781 1257.71875 2080.441406 1258.921875 C 2084.699219 1259.339844 2089.679688 1258.648438 2092.289062 1254.898438 C 2096.730469 1249.710938 2092.828125 1242.988281 2088.808594 1238.910156 C 2088.480469 1238.488281 2088.148438 1238.070312 2087.820312 1237.648438 C 2087.789062 1237.558594 2087.761719 1237.46875 2087.699219 1237.351562 C 2085.988281 1234.378906 2080.890625 1222.261719 2081.550781 1224.839844 C 2074.949219 1215.269531 2066.101562 1207.679688 2058.601562 1198.890625 C 2034.269531 1170.449219 1999.140625 1155.03125 1961.699219 1167.601562 C 1925.398438 1180.890625 1902.449219 1216.109375 1885.679688 1249.171875 C 1882.289062 1254.539062 1886.671875 1262.070312 1892.941406 1261.859375 Z M 1918.378906 1133.851562 C 1918.410156 1136.371094 1919.609375 1138.859375 1921.980469 1140.179688 C 1923.691406 1141.171875 1925.789062 1141.46875 1927.710938 1140.929688 C 1934.039062 1138.261719 1940.429688 1135.679688 1946.941406 1133.398438 C 1962.78125 1127.550781 1986.480469 1123.019531 1996.890625 1121.96875 C 2009.578125 1120.621094 2026.109375 1121.28125 2034.78125 1122.898438 C 2043.390625 1124.191406 2051.730469 1126.800781 2060.21875 1128.570312 C 2063.910156 1129.5 2068.351562 1128.929688 2070.359375 1125.328125 C 2075.910156 1112.730469 2052.179688 1108.738281 2043.929688 1105.5 C 2017.621094 1097.609375 1989 1091.640625 1961.640625 1096.710938 C 1948.140625 1101.78125 1938.121094 1104.71875 1926.75 1115.25 C 1925.28125 1116.898438 1924.078125 1118.878906 1923.089844 1120.890625 C 1922.699219 1121.191406 1918.019531 1128.78125 1918.109375 1130.671875 C 1917.78125 1131.78125 1917.929688 1132.890625 1918.378906 1133.851562 "/>
<path fill-rule="nonzero" fill="rgb(100%, 89.84375%, 76.951599%)" fill-opacity="1" d="M 1495.738281 1197.03125 C 1491.898438 1206.328125 1480.171875 1211.429688 1470.71875 1207.949219 C 1461.269531 1204.46875 1455.71875 1192.921875 1458.871094 1183.378906 C 1461.988281 1173.839844 1473.328125 1167.839844 1482.988281 1170.601562 C 1495.5 1174.199219 1499.578125 1187.761719 1495.738281 1197.03125 Z M 2000.011719 1190.191406 C 1990.351562 1187.429688 1979.039062 1193.398438 1975.890625 1202.96875 C 1972.738281 1212.539062 1978.320312 1224.058594 1987.738281 1227.539062 C 1997.160156 1231.019531 2008.890625 1225.921875 2012.761719 1216.621094 C 2016.601562 1207.320312 2012.519531 1193.761719 2000.011719 1190.191406 Z M 2125.199219 2714.671875 C 2120.609375 2714.699219 2125.140625 2719.589844 2125.980469 2721.539062 C 2132.910156 2733.511719 2136.75 2745.960938 2136.78125 2759.519531 C 2136.660156 2765.941406 2136.421875 2769.300781 2134.46875 2775.660156 C 2133.480469 2778.988281 2138.761719 2780.460938 2139.660156 2777.101562 C 2144.671875 2755.828125 2138.640625 2731.53125 2125.199219 2714.671875 Z M 2093.640625 2765.730469 C 2091.691406 2760.988281 2089.019531 2756.609375 2085.988281 2752.5 C 2084.789062 2751.269531 2083.980469 2749.078125 2082.121094 2748.808594 C 2078.039062 2749.738281 2082.238281 2753.308594 2083.5 2755.050781 C 2088.421875 2761.351562 2094.511719 2775.449219 2095.289062 2783.671875 C 2095.769531 2788.050781 2096.128906 2791.980469 2095.230469 2795.070312 C 2094.480469 2797.648438 2098.558594 2798.789062 2099.21875 2796.179688 C 2101.050781 2785.351562 2098.050781 2775.898438 2093.640625 2765.730469 Z M 1239.089844 2757 C 1237.621094 2747.609375 1239.390625 2738.070312 1239.71875 2728.800781 C 1238.96875 2726.671875 1235.550781 2727.390625 1235.640625 2729.640625 C 1234.261719 2738.25 1233.210938 2753.28125 1235.820312 2763.898438 C 1238.128906 2774.761719 1242.089844 2785.261719 1246.441406 2795.429688 C 1247.820312 2797.410156 1251.179688 2795.761719 1250.429688 2793.449219 C 1245.691406 2782.320312 1240.171875 2766.898438 1239.089844 2757 Z M 1294.828125 2748.148438 C 1294.949219 2743.46875 1295.730469 2740.320312 1297.140625 2735.160156 C 1297.738281 2733.269531 1295.191406 2731.769531 1293.808594 2733.238281 C 1288.949219 2747.460938 1290.121094 2763.449219 1291.230469 2778.300781 C 1292.460938 2786.789062 1295.25 2795.070312 1298.339844 2803.019531 C 1299.628906 2804.878906 1302.75 2803.320312 1302.058594 2801.160156 C 1295.039062 2783.460938 1293.628906 2767.230469 1294.828125 2748.148438 Z M 1641.390625 2761.230469 C 1636.859375 2761.078125 1640.101562 2765.640625 1641.300781 2767.648438 C 1646.820312 2777.640625 1650.269531 2785.320312 1653.449219 2796.058594 C 1655.460938 2800.738281 1655.339844 2809.890625 1657.828125 2813.101562 C 1659.480469 2814.121094 1661.730469 2812.441406 1661.128906 2810.550781 C 1658.011719 2793.269531 1651.859375 2775.300781 1641.390625 2761.230469 Z M 1618.078125 2793.421875 C 1615.230469 2787.269531 1612.980469 2779.890625 1608.121094 2775.179688 C 1602.660156 2775.300781 1608.03125 2781.03125 1609.109375 2783.371094 C 1613.429688 2791.859375 1616.609375 2801.371094 1619.339844 2811.871094 C 1620.570312 2816.488281 1620.421875 2818.230469 1621.019531 2822.371094 C 1621.828125 2824.648438 1625.519531 2823.898438 1625.429688 2821.46875 C 1624.800781 2811.75 1621.5 2802.449219 1618.078125 2793.421875 Z M 1742.878906 2770.53125 C 1737.808594 2780.578125 1735.320312 2792.578125 1733.878906 2803.828125 C 1733.789062 2808.75 1732.621094 2814.359375 1734.238281 2818.980469 C 1735.46875 2820.300781 1737.898438 2819.308594 1737.839844 2817.480469 C 1737.238281 2803.289062 1739.851562 2791.921875 1744.261719 2777.910156 C 1745.070312 2775.390625 1748.21875 2769.121094 1742.878906 2770.53125 Z M 1777.679688 2789.429688 C 1773.898438 2789.101562 1774.589844 2794.921875 1773.449219 2797.410156 C 1771.378906 2807.011719 1770.300781 2816.851562 1770.421875 2826.660156 C 1770.601562 2828.21875 1769.910156 2830.140625 1771.050781 2831.429688 C 1772.339844 2832.808594 1774.859375 2831.761719 1774.800781 2829.871094 C 1774.648438 2818.261719 1775.460938 2810.101562 1777.078125 2800.921875 C 1777.558594 2797.621094 1778.820312 2794.410156 1779.148438 2791.140625 C 1779.089844 2790.328125 1778.429688 2789.640625 1777.679688 2789.429688 "/>
</svg>
